<svg xmlns="http://www.w3.org/2000/svg">
    <symbol id="logo1" viewBox="0 0 104 56">
<path fill-rule="evenodd" d="m38 7 7.0078 6.6764L32 13.6687v32.3922h34V33.6758l7 6.669V7H38Zm27.6924 25.8922L45.8226 13.962h19.8698v18.9302Zm-6.1693 8.4305h-22.143V19.5373h1.5652v20.3102h20.5778v1.4752ZM41.7959 52.0611l-.8252-1.6968h-.6811l1.1962 2.2461v1.3086h.6177v-1.3086l1.1963-2.2461h-.6787l-.8252 1.6968Zm3.042-1.6968h.1465l1.3427 3.5547h-.6445l-.2876-.8325h-1.3761l-.287.8325h-.6421l1.3379-3.5547h.4102Zm-.6515 2.2364h1.0407l-.5209-1.508-.5198 1.508Zm4.2957-.589a9.5487 9.5487 0 0 1-.0773-.0995c-.0912-.1205-.162-.2368-.2124-.3491a.8596.8596 0 0 1-.0757-.3516c0-.1855.0382-.345.1147-.4785s.1848-.236.3248-.3076c.1399-.0733.3035-.1099.4907-.1099.1806 0 .3361.0366.4663.1099.1318.0716.2327.1668.3027.2856a.7426.7426 0 0 1 .1074.3906c0 .1123-.0203.2149-.061.3077a.8962.8962 0 0 1-.1685.2539 1.7286 1.7286 0 0 1-.249.2173l-.2469.1797.7039.8307a1.407 1.407 0 0 0 .063-.1437c.0603-.1563.0904-.3296.0904-.5201h.5078c0 .1726-.0171.3361-.0513.4908a1.5226 1.5226 0 0 1-.1587.4296 1.2677 1.2677 0 0 1-.1008.1569l.5207.6146h-.6811l-.2066-.243a1.384 1.384 0 0 1-.3647.1991c-.1725.0618-.3564.0928-.5517.0928-.2361 0-.4403-.0432-.6128-.1294-.1726-.0863-.306-.2051-.4004-.3565-.0928-.1514-.1392-.3247-.1392-.52 0-.1449.0301-.2718.0903-.3809.0603-.1106.1425-.2132.2466-.3076a3.5255 3.5255 0 0 1 .3288-.2618Zm.2917.3572-.0736.0535c-.0863.07-.1506.1376-.1929.2027-.0407.0635-.0675.1221-.0805.1758a.607.607 0 0 0-.0196.1416c0 .1041.022.1985.0659.2832a.5146.5146 0 0 0 .1978.2026c.0879.0488.1945.0732.3198.0732a.9078.9078 0 0 0 .3931-.0903c.0636-.031.124-.0683.181-.112l-.791-.9303Zm.1405-.6493.218-.1468c.1026-.0683.1758-.1351.2198-.2002.0439-.0667.0659-.1497.0659-.249 0-.0846-.0326-.1627-.0977-.2344-.0651-.0716-.1571-.1074-.2759-.1074-.083 0-.153.0195-.2099.0586a.355.355 0 0 0-.1294.1514c-.0277.0618-.0415.131-.0415.2075 0 .0732.0187.1489.0561.227.0375.0765.0887.1571.1538.2417.0133.017.0269.0341.0408.0516Zm6.219 1.0422h-.6104c-.0179.1546-.0553.2856-.1123.3931-.0553.1058-.1375.1863-.2465.2417-.1075.0553-.2482.083-.4224.083-.1432 0-.2661-.0285-.3687-.0855-.1025-.0569-.1871-.1375-.2539-.2417-.0651-.1041-.1139-.2287-.1464-.3735-.031-.1465-.0464-.3093-.0464-.4883v-.3003c0-.1888.0171-.3564.0512-.5029.0358-.1481.0887-.2726.1587-.3736.07-.1009.1571-.1774.2613-.2294.1041-.0521.2262-.0782.3662-.0782.1709 0 .3092.0293.415.0879a.554.554 0 0 1 .2393.249c.0553.1091.0911.2401.1074.3931h.6103c-.0244-.2376-.0911-.4484-.2002-.6323-.1074-.1839-.2587-.328-.4541-.4321-.1953-.1042-.4345-.1563-.7177-.1563-.223 0-.424.0391-.6031.1172a1.2656 1.2656 0 0 0-.4565.3394c-.127.1464-.2246.323-.293.5297-.0667.2067-.1001.4379-.1001.6934v.2954c0 .2555.0326.4867.0977.6934.0667.2067.1628.3833.2881.5298.1253.1448.2759.2571.4516.3369.1758.0781.3736.1172.5933.1172.2865 0 .5298-.0521.73-.1563.2002-.1042.3556-.2466.4663-.4272.1107-.1823.1758-.3899.1953-.6226Zm3.3911-.5225v-.1953c0-.2685-.0358-.5086-.1074-.7202-.07-.2132-.1701-.3947-.3003-.5444a1.2766 1.2766 0 0 0-.4663-.3443c-.1807-.0797-.3809-.1196-.6006-.1196-.2181 0-.4175.0399-.5981.1196a1.3038 1.3038 0 0 0-.4663.3443c-.1303.1497-.2312.3312-.3028.5444-.0716.2116-.1074.4517-.1074.7202v.1953c0 .2686.0358.5095.1074.7227.0733.2132.1758.3947.3076.5444.1319.1498.2873.2645.4663.3443.1807.0781.3801.1172.5982.1172.2197 0 .4199-.0391.6006-.1172a1.291 1.291 0 0 0 .4638-.3443c.1302-.1497.2303-.3312.3003-.5444s.105-.4541.105-.7227Zm-.6128-.2002v.2002c0 .1986-.0195.3744-.0586.5274-.0374.153-.0927.2824-.166.3882-.0732.1041-.1627.1831-.2685.2368-.1058.0521-.2271.0781-.3638.0781-.1351 0-.2555-.026-.3613-.0781-.1058-.0537-.197-.1327-.2735-.2368-.0748-.1058-.1318-.2352-.1709-.3882-.039-.153-.0586-.3288-.0586-.5274v-.2002c0-.1985.0196-.3735.0586-.5249.0391-.153.0952-.2807.1685-.3833.0748-.1041.1652-.1823.271-.2343.1058-.0537.2262-.0806.3613-.0806s.2564.0269.3638.0806c.1074.052.1977.1302.271.2343.0748.1026.131.2303.1684.3833.0391.1514.0586.3264.0586.5249Z" clip-rule="evenodd"/>
    </symbol>
    <symbol id="logo2" viewBox="0 0 104 56">
<path fill-rule="evenodd" d="M50.1136 5.9345h-.1366c-.2099-.0127-.4199-.0178-.6299-.0229h-.4553c-.3972 0-.802.0102-1.2042.0305a.6253.6253 0 0 0-.091 0A28.2751 28.2751 0 0 0 37.0805 8.625l-.4326.2085v22.1412l1.0119-.3433c.8879-.3052 1.834-.5798 2.813-.8341a34.329 34.329 0 0 1 8.0952-1.0756v2.909a24.4348 24.4348 0 0 0-1.065.0306h-.0835a32.3607 32.3607 0 0 0-6.2282.9561 31.6346 31.6346 0 0 0-7.4197 2.8913V7.1119a29.7268 29.7268 0 0 1 7.784-3.166A29.7929 29.7929 0 0 1 48.8918 3h.4275c.511.0127 1.0094.0356 1.4774.0712a21.0914 21.0914 0 0 1 3.6554.5823v2.8633a22.6227 22.6227 0 0 0-3.5416-.534l-.0726-.0061c-.2468-.021-.4939-.0422-.7243-.0422Zm5.0392 2.9269c.6349.0483 1.2927.0712 1.958.0712a31.4672 31.4672 0 0 0 7.7131-.9892 31.7767 31.7767 0 0 0 7.4172-2.8938v27.8906a29.815 29.815 0 0 1-7.7865 3.1659 29.9427 29.9427 0 0 1-7.3362.9435 22.4048 22.4048 0 0 1-5.5654-.6561V8.3223c.43.0992.8727.1907 1.323.267.7387.1246 1.5179.2161 2.2768.272Zm14.1943.2161-1.0119.3408a44.554 44.554 0 0 1-2.8131.8417 34.2628 34.2628 0 0 1-8.4063 1.0782c-.6602 0-1.2673-.0178-1.8542-.056l-.807-.0534V34.0057l.6931.061c.6426.056 1.3054.0839 1.9732.0839a26.8836 26.8836 0 0 0 6.6203-.8569 27.7638 27.7638 0 0 0 5.1733-1.8589l.4326-.2085V9.0775Z" clip-rule="evenodd"/><path d="M35.7371 45.2124a1.491 1.491 0 0 0-.5147-.3478 1.4862 1.4862 0 0 0-.611-.1074 1.6723 1.6723 0 0 0-.6501.1221 1.5014 1.5014 0 0 0-.506.3331 1.4636 1.4636 0 0 0-.3263.5086 1.65 1.65 0 0 0-.1164.6281v3.794c-.009.2673.042.5333.1493.7781a1.525 1.525 0 0 0 .3794.5086c.1517.1277.3297.2197.5212.2696a2.116 2.116 0 0 0 .5666.0788 1.4195 1.4195 0 0 0 .6122-.1322 1.5996 1.5996 0 0 0 .506-.351 1.6487 1.6487 0 0 0 .3313-.5086 1.5334 1.5334 0 0 0 .1215-.6052v-.4246h-.9917v.3382a.8796.8796 0 0 1-.0582.3382.6075.6075 0 0 1-.1442.2136.6045.6045 0 0 1-.2074.1093.6973.6973 0 0 1-.2074.0356.503.503 0 0 1-.26-.0388.5066.5066 0 0 1-.2055-.1646.8982.8982 0 0 1-.1315-.5086v-3.5372a1.2071 1.2071 0 0 1 .1214-.567.507.507 0 0 1 .2102-.1845.5028.5028 0 0 1 .2755-.0444.5268.5268 0 0 1 .4427.2136.806.806 0 0 1 .1644.5086v.328h.9816v-.3865a1.7902 1.7902 0 0 0-.1215-.6637 1.5607 1.5607 0 0 0-.3314-.534ZM41.6289 45.1691a1.7652 1.7652 0 0 0-1.1282-.417 1.7342 1.7342 0 0 0-.592.1068 1.6058 1.6058 0 0 0-.5236.3102 1.5597 1.5597 0 0 0-.3846.5315 1.7714 1.7714 0 0 0-.1442.7349v3.6389c-.0068.256.0424.5103.1442.7451.0898.1956.221.3692.3846.5085.1516.1408.3296.2497.5236.3205.1897.0698.39.1059.592.1068a1.7138 1.7138 0 0 0 .5919-.1068 1.6563 1.6563 0 0 0 .5363-.3205 1.5532 1.5532 0 0 0 .3744-.5085 1.7543 1.7543 0 0 0 .1442-.7451v-3.6389a1.7698 1.7698 0 0 0-.1442-.7349 1.6411 1.6411 0 0 0-.3744-.5315Zm-.4629 4.9053a.6532.6532 0 0 1-.1973.5264.7267.7267 0 0 1-.4668.17.7264.7264 0 0 1-.4667-.17.6526.6526 0 0 1-.1973-.5264v-3.6389a.6526.6526 0 0 1 .1973-.5264.7264.7264 0 0 1 .4667-.17.7267.7267 0 0 1 .4668.17.6524.6524 0 0 1 .1973.5264v3.6389ZM49.3673 51.6994v-6.8887h-.9537l-1.2522 3.6465h-.0177l-1.2624-3.6465h-.9436v6.8887h.9841v-4.1907h.0177l.9638 2.9625h.4908l.9714-2.9625h.0177v4.1907h.9841ZM54.9581 45.2937a1.366 1.366 0 0 0-.5566-.3764 2.1838 2.1838 0 0 0-.7134-.1068H52.226v6.8888h.9815v-2.6904h.5059c.3063.0139.611-.0509.8854-.1882a1.4301 1.4301 0 0 0 .5389-.5264 1.649 1.649 0 0 0 .2251-.6001 4.8993 4.8993 0 0 0 .0531-.7832 3.923 3.923 0 0 0-.0961-.9841 1.4664 1.4664 0 0 0-.3617-.6332Zm-.506 2.1004a.8667.8667 0 0 1-.0911.3586.5522.5522 0 0 1-.2529.2415 1.006 1.006 0 0 1-.463.0865h-.4477v-2.342h.5059a.9422.9422 0 0 1 .4427.0864.5562.5562 0 0 1 .2302.2543c.0537.121.0829.2516.086.384v.4577c0 .1602.0101.3255 0 .473h-.0101ZM59.6077 44.8107h-.8045l-1.5178 6.8887h.9815l.2884-1.48h1.3382l.2884 1.48h.9816l-1.5558-6.8887Zm-.9057 4.4704.4832-2.4971h.0177l.4807 2.4971h-.9816ZM65.9497 48.9607h-.0177l-1.4824-4.15h-.9436v6.8887h.9815V47.557h.0203l1.5001 4.1424h.9233v-6.8887h-.9815v4.15ZM71.9476 44.8107l-.7893 2.7387h-.0202l-.7893-2.7387h-1.0397l1.3483 3.9771v2.9116h.9816v-2.9116l1.3483-3.9771h-1.0397ZM33 53.6445h.4731v1.3274h.3212v-1.3274h.4706v-.2721H33v.2721ZM36.9767 53.3724l-.6198 1.5995h.3415l.1316-.3636h.6375l.1366.3636h.3491l-.635-1.5995h-.3415Zm-.0506.9663.2176-.5925.2175.5925h-.4351ZM40.9079 54.3821h.3694v.206a.6128.6128 0 0 1-.3795.1348.4036.4036 0 0 1-.339-.1526.6692.6692 0 0 1-.1189-.417c0-.356.1543-.534.4604-.534a.3374.3374 0 0 1 .2277.0598.3407.3407 0 0 1 .1341.1944l.3162-.061c-.0683-.3128-.2934-.4704-.678-.4704a.8043.8043 0 0 0-.559.206.783.783 0 0 0-.2302.6153.872.872 0 0 0 .2049.6002.7732.7732 0 0 0 .6071.2339.9607.9607 0 0 0 .678-.2543v-.6306h-.6932v.2695ZM44.9226 53.3724h-.3238v1.5995h1.1206v-.2721h-.7968v-1.3274ZM48.3175 53.3724h-.3238v1.5995h.3238v-1.5995ZM51.6365 54.4405l-.6552-1.0681h-.3137v1.5995h.301v-1.0451l.6426 1.0451h.3213v-1.5995h-.296v1.0681ZM54.6368 54.2675h.7969v-.2721h-.7969v-.3509h.8576v-.2721H54.313v1.5995h1.2143v-.2721h-.8905v-.4323ZM61.9122 54.0031h-.6299v-.6307h-.3212v1.5995h.3212v-.6993h.6299v.6993h.3213v-1.5995h-.3213v.6307ZM64.9302 54.2675h.7994v-.2721h-.7994v-.3509h.8601v-.2721h-1.1814v1.5995h1.2117v-.2721h-.8904v-.4323ZM69.0233 54.2676c.2782-.0432.4199-.1907.4199-.445a.3828.3828 0 0 0-.1569-.356.9038.9038 0 0 0-.468-.0941h-.6779v1.5995h.3213v-.6688h.0632a.431.431 0 0 1 .1998.0356.335.335 0 0 1 .1139.117l.3491.5086h.3845l-.1948-.3128a1.1151 1.1151 0 0 0-.3541-.384Zm-.3239-.2212h-.2377v-.4018h.2529a.8399.8399 0 0 1 .3264.0381.2093.2093 0 0 1-.0152.3255.9127.9127 0 0 1-.3264.0382ZM72.1096 54.2675h.7968v-.2721h-.7968v-.3509h.8601v-.2721h-1.1839v1.5995H73v-.2721h-.8904v-.4323Z"/>
</symbol>
<symbol id="logo3" viewBox="0 0 104 56">
    <path d="M36.8098 49.2233a.139.139 0 0 1 .0467.0091.1232.1232 0 0 1 .0389.0239l.2208.2076c-.1714.168-.3832.3023-.6211.3939a2.4552 2.4552 0 0 1-.8805.1415 2.3808 2.3808 0 0 1-.8281-.1321c-.2368-.0846-.4495-.2117-.6239-.3727-.1778-.167-.3149-.3626-.403-.5755a1.8898 1.8898 0 0 1-.1407-.7383 1.7631 1.7631 0 0 1 .1518-.7407c.0964-.2142.2419-.4099.4278-.5755.1885-.1625.414-.2901.6625-.3751.2719-.09.5614-.1349.853-.1321a2.3336 2.3336 0 0 1 .7922.1203c.2186.0811.4193.1936.5935.3326l-.185.2217a.179.179 0 0 1-.0469.0401.128.128 0 0 1-.0745.0166.1826.1826 0 0 1-.0801-.0236l-.0994-.059-.138-.0755a1.604 1.604 0 0 0-.1849-.0731 1.9677 1.9677 0 0 0-.2512-.059 1.9704 1.9704 0 0 0-.3285-.0236 1.8129 1.8129 0 0 0-.6128.0991c-.1814.0626-.3451.1575-.4803.2783-.1376.1285-.2437.2793-.3119.4435a1.4692 1.4692 0 0 0-.1132.585c-.0033.2022.035.4034.1132.5944.0673.1627.1714.3126.3064.4411.1264.1198.2831.2133.4582.2736.1802.0638.3736.0959.5686.0944a2.459 2.459 0 0 0 .3368-.0189c.182-.019.3566-.073.5107-.1581a1.668 1.668 0 0 0 .218-.1462.1746.1746 0 0 1 .1049-.0377ZM43.1861 48.1803a1.775 1.775 0 0 1-.149.7335c-.09.2128-.2317.4069-.4158.5696-.1842.1626-.4065.29-.6525.3739a2.7315 2.7315 0 0 1-1.6782 0c-.2444-.0852-.4653-.2129-.6487-.3751-.184-.1655-.3268-.3613-.4196-.5755-.1988-.475-.1988-.9943 0-1.4694.0942-.2142.2367-.4106.4196-.5778.1849-.1571.4057-.2799.6487-.3609a2.6852 2.6852 0 0 1 1.6782 0c.2452.0851.4671.2128.6515.375.1817.164.3234.3572.4168.5684.1022.2362.1528.4865.149.7383Zm-.5796 0a1.5368 1.5368 0 0 0-.1049-.5897c-.0619-.1628-.1624-.3129-.2954-.441-.1294-.1212-.2888-.2163-.4665-.2783a1.9714 1.9714 0 0 0-1.22 0c-.1778.062-.3371.1571-.4665.2783-.1348.1273-.2364.2776-.2981.441a1.7024 1.7024 0 0 0 0 1.1793c.0623.1632.1638.3134.2981.4411.1296.1205.2889.2147.4665.276a2.0222 2.0222 0 0 0 1.22 0c.1776-.0613.3369-.1555.4665-.276.1324-.1284.2329-.2785.2954-.4411.0741-.19.1095-.3894.1049-.5896ZM47.5365 48.7987l.0579.1321c.0221-.0472.0414-.0896.0635-.1321a1.2115 1.2115 0 0 1 .0718-.1297l1.4105-2.1909c.0276-.0377.0525-.0613.0801-.0684a.3884.3884 0 0 1 .1159-.0118h.4168v3.5635h-.4941v-2.731a.9288.9288 0 0 1 0-.1226l-1.4188 2.2215a.2031.2031 0 0 1-.0831.0811.252.252 0 0 1-.1212.0298h-.08a.2495.2495 0 0 1-.1215-.0294.2008.2008 0 0 1-.0828-.0815l-1.4602-2.2356v2.8606h-.4775v-3.5564h.4168a.3888.3888 0 0 1 .1159.0118.155.155 0 0 1 .0773.0684l1.4409 2.1933a.7526.7526 0 0 1 .0718.1273ZM52.8447 48.6217v1.3347h-.5521v-3.5586h1.2311a2.6754 2.6754 0 0 1 .6873.0778c.1787.0433.3444.1189.4859.2217.1226.0964.2171.2159.276.349.0652.1452.097.2997.0938.4552a1.005 1.005 0 0 1-.1021.4551c-.0663.1366-.1683.2584-.2981.3561-.1416.1071-.3081.1875-.4886.2359a2.373 2.373 0 0 1-.6652.0825l-.668-.0094Zm0-.3821h.668a1.5709 1.5709 0 0 0 .4278-.0542.9408.9408 0 0 0 .3092-.1533.6343.6343 0 0 0 .1877-.2358.673.673 0 0 0 .0662-.2995.5919.5919 0 0 0-.0553-.2899.6873.6873 0 0 0-.1931-.2431c-.2109-.1407-.4758-.2088-.7425-.191h-.668v1.4668ZM60.2645 49.9613h-.4362a.21.21 0 0 1-.1214-.0331.2242.2242 0 0 1-.0718-.0825l-.3754-.8609h-1.8853l-.3892.8609a.1962.1962 0 0 1-.069.0802.2099.2099 0 0 1-.1242.0354h-.4362l1.6562-3.5638h.5742l1.6783 3.5638Zm-2.7328-1.3232h1.5569l-.657-1.4505a2.3318 2.3318 0 0 1-.1242-.3349l-.0635.1863a1.659 1.659 0 0 1-.0607.1509l-.6515 1.4482ZM62.6495 46.414a.2344.2344 0 0 1 .0828.0637l2.4153 2.6864v-2.7666h.4941v3.5638h-.276a.273.273 0 0 1-.1132-.0212.3003.3003 0 0 1-.0883-.0661l-2.4125-2.684a.9645.9645 0 0 1 0 .1226v2.6487h-.4941v-3.5638h.2926a.2685.2685 0 0 1 .0993.0165ZM69.7104 48.5438v1.4151h-.5521v-1.4151l-1.5265-2.1463h.4941a.2014.2014 0 0 1 .1187.0307.3128.3128 0 0 1 .0746.0802l.9551 1.3844a2.142 2.142 0 0 1 .0993.1651c.0276.0519.0497.1014.069.151l.0718-.1533a1.2272 1.2272 0 0 1 .0939-.1628l.9412-1.3939a.376.376 0 0 1 .0718-.0754.187.187 0 0 1 .1187-.0354h.4996l-1.5292 2.1557ZM47.2632 40.417c.2401.0259.483.0472.7287.066 3.7246-1.4235 6.8754-3.7535 9.0587-6.6986 2.1832-2.9451 3.3021-6.3747 3.2166-9.8601l-4.1046-3.5071c.8346 3.7109.4442 7.547-1.1275 11.0791-1.5717 3.5321-4.2627 6.6208-7.7719 8.9207Z"/><path d="m45.7975 40.2539.1104.0189c3.7499-2.2917 6.6089-5.4919 8.2072-9.1867 1.5984-3.6949 1.8625-7.7144.7584-11.5389l-5.8464-4.9951c2.3647 4.1059 3.3165 8.7009 2.7448 13.2508-.5717 4.5499-2.6435 8.8676-5.9744 12.451ZM65.6251 28.0424c-.9933 3.8296-3.4056 7.2834-6.8788 9.8487-1.0144.7533-2.1085 1.4244-3.2683 2.0046 2.8282-.7102 5.4277-1.9659 7.5981-3.6702 2.1704-1.7042 3.8537-3.8116 4.9201-6.1596l-2.3711-2.0235Z"/><path d="m64.6948 27.4784-3.3759-2.8844c-.0645 3.2885-1.1587 6.5023-3.1689 9.3072-2.0101 2.805-4.8629 5.0988-8.2617 6.643h.0166a22.4294 22.4294 0 0 0 2.2662-.1156c3.1764-1.1077 5.9824-2.87 8.1677-5.1297 2.1852-2.2597 3.6818-4.9464 4.356-7.8205ZM46.2861 12.4457 42.2587 9c-3.6003 1.1887-6.6967 3.2784-8.884 5.9955-2.1872 2.7172-3.3635 5.9353-3.3747 9.233.0135 3.644 1.449 7.18 4.0793 10.0484 2.6303 2.8685 6.3052 4.9055 10.4429 5.7887 3.6938-3.8451 5.8564-8.5963 6.1736-13.5633.3172-4.967-1.2275-9.891-4.4097-14.0566ZM74 26.9478c-.0146-4.3233-2.0311-8.466-5.6092-11.5231-3.5781-3.0571-8.4268-4.78-13.4869-4.7925-2.3382-.0021-4.6566.3666-6.8374 1.0872l24.6582 21.0679c.8443-1.8623 1.2768-3.8424 1.2753-5.8395Z"/>
</symbol>
<symbol id="logo4" viewBox="0 0 104 56">
    <path d="M24.0782 21.5179h-.0029c-2.3856 0-4.3196 1.7437-4.3196 3.8945v.0026c0 2.1508 1.934 3.8944 4.3196 3.8944h.0029c2.3856 0 4.3196-1.7436 4.3196-3.8944v-.0026c0-2.1508-1.934-3.8945-4.3196-3.8945ZM55.9614 20.273c-.0067-2.9875-1.3258-5.8509-3.6685-7.9636C49.9502 10.1967 46.7746 9.0068 43.4611 9c-3.3145.0054-6.4915 1.1948-8.8354 3.3076-2.344 2.1129-3.6638 4.977-3.6706 7.9654v16.4742s25.0035-2.5108 25.0063-16.4717v-.0025ZM11 42.1543c.006 2.0787.9243 4.0708 2.5543 5.5409 1.63 1.4701 3.8392 2.2987 6.1447 2.3048 2.305-.0061 4.5137-.8343 6.1436-2.3039 1.6299-1.4696 2.5486-3.461 2.5554-5.5392V30.6938S11 32.4422 11 42.1543Zm8.699 2.0539c-.4506 0-.891-.1205-1.2656-.3462-.3746-.2256-.6666-.5464-.839-.9217-.1724-.3753-.2175-.7883-.1296-1.1867.0879-.3984.3048-.7643.6234-1.0516.3186-.2872.7245-.4828 1.1664-.5621a2.5105 2.5105 0 0 1 1.3161.1169c.4163.1555.772.4187 1.0223.7565.2503.3377.3839.7348.3839 1.141a1.8778 1.8778 0 0 1-.1709.7884c-.114.25-.2816.4774-.4932.6689-.2117.1915-.4632.3435-.7401.4472a2.4952 2.4952 0 0 1-.8737.1571v-.0077ZM35.6089 40.515v4.2656H34.73V40.515h.8789Zm1.6992 1.8223v.6855h-1.9394v-.6855h1.9394Zm.2051-1.8223v.6885h-2.1445v-.6885h2.1445Zm4.0137 2.0332v.2022c0 .3242-.044.6152-.1319.873-.0879.2578-.2119.4776-.3721.6592a1.612 1.612 0 0 1-.5742.4131c-.2207.0957-.4658.1435-.7353.1435-.2676 0-.5127-.0478-.7354-.1435a1.6478 1.6478 0 0 1-.5742-.4131c-.1621-.1816-.2881-.4014-.3779-.6592-.0879-.2578-.1319-.5488-.1319-.873v-.2022c0-.3262.044-.6172.1319-.873.0879-.2578.2119-.4776.372-.6592a1.633 1.633 0 0 1 .5743-.416c.2226-.0957.4677-.1436.7353-.1436.2696 0 .5147.0479.7354.1436.2226.0957.414.2344.5742.416.1621.1816.2871.4014.375.6592.0898.2558.1348.5468.1348.873Zm-.8877.2022v-.208c0-.2266-.0205-.4258-.0616-.5977-.041-.1719-.1015-.3164-.1816-.4336-.0801-.1172-.1777-.2051-.293-.2637-.1152-.0605-.247-.0908-.3955-.0908-.1484 0-.2803.0303-.3955.0908-.1133.0586-.2099.1465-.29.2637-.0782.1172-.1377.2617-.1787.4336-.0411.1719-.0616.3711-.0616.5977v.208c0 .2246.0205.4238.0616.5976.041.1719.1015.3174.1816.4365.0801.1172.1777.2061.293.2666.1152.0606.247.0909.3955.0909.1484 0 .2803-.0303.3955-.0909.1152-.0605.2119-.1494.29-.2666.0782-.1191.1377-.2646.1787-.4365.0411-.1738.0616-.373.0616-.5976Zm3.7412.914c0-.0761-.0117-.1445-.0352-.205-.0215-.0625-.0625-.1192-.123-.17-.0606-.0527-.1455-.1045-.2549-.1552-.1094-.0508-.251-.1036-.4248-.1582a5.3767 5.3767 0 0 1-.5508-.211c-.1719-.0781-.3242-.1689-.457-.2724-.1309-.1055-.2344-.2276-.3106-.3663-.0742-.1386-.1113-.2998-.1113-.4834 0-.1777.0391-.3388.1172-.4834.0781-.1464.1875-.2714.3281-.375.1406-.1054.3066-.1865.4981-.2431.1933-.0567.4052-.085.6357-.085.3144 0 .5889.0567.8232.1699.2344.1133.4161.2686.545.4659.1308.1972.1962.4228.1962.6767h-.873c0-.125-.0264-.2344-.0791-.3281-.0508-.0957-.1289-.1709-.2344-.2256-.1035-.0547-.2344-.082-.3926-.082-.1523 0-.2793.0234-.3808.0703-.1016.0449-.1777.1064-.2285.1846-.0508.0761-.0762.1621-.0762.2578 0 .0722.0176.1377.0527.1963.0371.0586.0918.1132.1641.164.0723.0508.1611.0987.2666.1436.1055.0449.2275.0888.3662.1318.2324.0703.4365.1494.6123.2373.1777.0879.3262.1865.4453.2959.1192.1094.209.2334.2696.3721.0605.1387.0908.2959.0908.4717 0 .1855-.0362.3515-.1084.498-.0723.1465-.1768.2705-.3135.3721-.1367.1015-.2998.1787-.4893.2314-.1894.0528-.4013.0791-.6357.0791a2.4114 2.4114 0 0 1-.624-.082c-.2051-.0566-.3916-.1416-.5596-.2549a1.2846 1.2846 0 0 1-.3984-.4336c-.0996-.1758-.1494-.3838-.1494-.624h.8818c0 .1328.0205.2451.0615.3369.041.0918.0986.166.1729.2227.0761.0566.166.0976.2695.123.1055.0254.2207.0381.3457.0381.1523 0 .2773-.0215.375-.0644.0996-.043.1729-.1026.2197-.1788.0489-.0761.0733-.1621.0733-.2578Zm3.3838-3.1494v4.2656h-.876V40.515h.876Zm1.3125 0v.6885h-3.4805v-.6885h3.4805Zm3.3632 3.5801v.6855h-2.2705v-.6855h2.2705Zm-1.9834-3.5801v4.2656h-.8789V40.515h.8789Zm1.6875 1.7373v.668h-1.9746v-.668h1.9746Zm.293-1.7373v.6885h-2.2676v-.6885h2.2676Zm.5156 0h1.5909c.3261 0 .6064.0488.8408.1465.2363.0977.4179.2422.5449.4336.127.1914.1904.4268.1904.706 0 .2286-.039.4249-.1172.5889a1.1007 1.1007 0 0 1-.3252.4072c-.1386.1075-.3017.1934-.4892.2579l-.2783.1464h-1.3828l-.0059-.6855h1.0283c.1543 0 .2822-.0274.3838-.082.1016-.0547.1777-.1309.2285-.2286.0528-.0976.0791-.2109.0791-.3398 0-.1367-.0254-.2549-.0761-.3545-.0508-.0996-.128-.1758-.2315-.2285-.1035-.0527-.2334-.0791-.3896-.0791h-.712v3.5771h-.8789V40.515Zm2.3848 4.2656-.9727-1.9013.9288-.0059.9843 1.8662v.041h-.9404Zm4.6143-1.5205h-1.087v-.6855h1.087c.1679 0 .3046-.0274.4101-.082.1055-.0567.1826-.1348.2315-.2344.0488-.0996.0732-.2119.0732-.3369 0-.127-.0244-.2452-.0732-.3545-.0489-.1094-.126-.1973-.2315-.2637-.1055-.0664-.2422-.0996-.4101-.0996h-.7823v3.5771h-.8789V40.515h1.6612c.3339 0 .6201.0606.8584.1817.2402.1191.4238.2841.5507.4951.127.2109.1905.4521.1905.7236 0 .2754-.0635.5137-.1905.7148-.1269.2012-.3105.3565-.5507.4659-.2383.1093-.5245.164-.8584.164Zm5.0683.835v.6855h-2.2705v-.6855H65.02Zm-1.9834-3.5801v4.2656h-.8789V40.515h.8789Zm1.6875 1.7373v.668h-1.9746v-.668h1.9746Zm.293-1.7373v.6885h-2.2676v-.6885h2.2676Zm2.4814 0v4.2656h-.8759V40.515h.8759Zm1.3125 0v.6885h-3.4804v-.6885h3.4804Zm3.3633 3.5801v.6855h-2.2705v-.6855h2.2705Zm-1.9834-3.5801v4.2656h-.8789V40.515h.8789Zm1.6875 1.7373v.668h-1.9746v-.668h1.9746Zm.293-1.7373v.6885h-2.2676v-.6885h2.2676Zm.5156 0h1.5908c.3262 0 .6065.0488.8409.1465.2363.0977.4179.2422.5449.4336.1269.1914.1904.4268.1904.706 0 .2286-.0391.4249-.1172.5889a1.1027 1.1027 0 0 1-.3252.4072c-.1387.1075-.3017.1934-.4892.2579l-.2784.1464h-1.3828l-.0058-.6855h1.0283c.1543 0 .2822-.0274.3838-.082.1015-.0547.1777-.1309.2285-.2286.0527-.0976.0791-.2109.0791-.3398 0-.1367-.0254-.2549-.0762-.3545-.0508-.0996-.1279-.1758-.2314-.2285-.1035-.0527-.2334-.0791-.3897-.0791h-.7119v3.5771h-.8789V40.515Zm2.3848 4.2656-.9727-1.9013.9287-.0059.9844 1.8662v.041h-.9404Zm3.6797-1.1162c0-.0761-.0118-.1445-.0352-.205-.0215-.0625-.0625-.1192-.123-.17-.0606-.0527-.1455-.1045-.2549-.1552-.1094-.0508-.251-.1036-.4248-.1582a5.3767 5.3767 0 0 1-.5508-.211c-.1719-.0781-.3242-.1689-.457-.2724-.1309-.1055-.2344-.2276-.3106-.3663-.0742-.1386-.1113-.2998-.1113-.4834 0-.1777.039-.3388.1172-.4834.0781-.1464.1875-.2714.3281-.375.1406-.1054.3066-.1865.498-.2431.1934-.0567.4053-.085.6358-.085.3144 0 .5889.0567.8232.1699.2344.1133.416.2686.545.4659.1308.1972.1962.4228.1962.6767h-.873c0-.125-.0264-.2344-.0791-.3281-.0508-.0957-.1289-.1709-.2344-.2256-.1035-.0547-.2344-.082-.3926-.082-.1523 0-.2793.0234-.3808.0703-.1016.0449-.1778.1064-.2285.1846-.0508.0761-.0762.1621-.0762.2578 0 .0722.0176.1377.0527.1963.0371.0586.0918.1132.1641.164.0723.0508.1611.0987.2666.1436.1055.0449.2275.0888.3662.1318.2324.0703.4365.1494.6123.2373.1777.0879.3262.1865.4453.2959.1192.1094.209.2334.2696.3721.0605.1387.0908.2959.0908.4717 0 .1855-.0362.3515-.1084.498-.0723.1465-.1768.2705-.3135.3721-.1367.1015-.2998.1787-.4893.2314-.1894.0528-.4013.0791-.6357.0791a2.4114 2.4114 0 0 1-.624-.082c-.2051-.0566-.3916-.1416-.5596-.2549a1.2846 1.2846 0 0 1-.3984-.4336c-.0996-.1758-.1494-.3838-.1494-.624h.8818c0 .1328.0205.2451.0615.3369.041.0918.0986.166.1729.2227.0761.0566.166.0976.2695.123.1055.0254.2207.0381.3457.0381.1523 0 .2773-.0215.375-.0644.0996-.043.1728-.1026.2197-.1788.0489-.0761.0733-.1621.0733-.2578Z"/>
</symbol>
<symbol id="logo5" viewBox="0 0 104 56">
    <path d="M26.7919 44.373c.2455.2735.3762.6161.3694.9677a1.3977 1.3977 0 0 1-.1315.6698c-.0991.2116-.2498.4004-.4409.5525-.4769.3242-1.0676.4827-1.6639.4463H22v-6.1324h2.8651c.5656-.0338 1.1267.1102 1.5874.4075.185.1394.3315.3156.428.5147.0964.1991.1401.4157.1277.6326.0168.3383-.1012.6709-.3328.9377-.2223.2437-.5295.4126-.8718.4794.388.0637.7383.2495.9883.5242Zm-3.4309-.9257h1.2246c.2783.0186.5548-.0538.7787-.2037a.7313.7313 0 0 0 .2091-.272.6616.6616 0 0 0 .0538-.3271.6858.6858 0 0 0-.055-.3259.7533.7533 0 0 0-.2046-.2733c-.2306-.1542-.5156-.2276-.8019-.2067H23.361v1.6087Zm2.1231 2.3517a.7702.7702 0 0 0 .2258-.281.6938.6938 0 0 0 .0637-.3421.7043.7043 0 0 0-.0667-.3456.781.781 0 0 0-.2295-.2835c-.2395-.1599-.5342-.2384-.8319-.2217H23.361v1.6866h1.3012c.2928.0152.5827-.0598.8219-.2127ZM32.6487 47.0093l-1.594-2.3966h-.599v2.3966h-1.371v-6.1324h2.5956c.6543-.0411 1.3011.1455 1.807.5213.3628.3328.5816.7714.617 1.2366.0354.4653-.115.9266-.424 1.3009-.3203.3302-.7577.5504-1.2379.6231l1.6971 2.4505h-1.4908Zm-2.193-3.2324h1.1215c.7786 0 1.168-.3096 1.168-.9287a.831.831 0 0 0-.0627-.3716.908.908 0 0 0-.2235-.3175c-.2461-.1842-.563-.2736-.8818-.2486h-1.1348l.0133 1.8664ZM40.1426 45.7752h-2.732l-.4826 1.2342h-1.4375l2.5091-6.0635h1.554l2.4991 6.0635h-1.4376l-.4725-1.2342Zm-.366-.9287-.9984-2.5884-.9983 2.5884h1.9967ZM49.5234 47.0094h-1.361l-3.0515-4.1702v4.1702h-1.3577V40.877h1.3577l3.0515 4.1941V40.877h1.361v6.1324ZM57.2903 45.5415c-.2814.463-.7102.8396-1.2313 1.0814-.5924.2694-1.2499.4022-1.9134.3865H51.723V40.877h2.4226c.6623-.0156 1.319.114 1.9134.3775.521.2363.9502.6092 1.2313 1.0695.2801.4987.4261 1.0498.4261 1.6087s-.146 1.11-.4261 1.6088Zm-1.5574-.1468c.3884-.4074.602-.9266.602-1.4635s-.2136-1.056-.602-1.4634c-.4695-.369-1.0818-.5564-1.7038-.5213h-.945v3.9694h.945c.622.0351 1.2343-.1522 1.7038-.5212ZM40.9945 6.7667s17.5669 5.9707 17.1942 14.6106v14.6135s-17.5536-5.9736-17.1875-14.6135l-.0067-14.6106ZM73.8389 32.5694c3.3176-2.0555 7.1552-3.3286 11.1611-3.7028V24.292c-4.6158 1.6015-8.5314 4.5055-11.1611 8.2774Z"/><path d="M71.8456 33.9478c2.7155-4.9225 7.423-8.721 13.1544-10.6142V10.1521s-25.0177 8.5051-24.4886 20.8088v20.8059s1.1148-.3805 2.8685-1.0935c0-.665 0-1.3361.0799-2.0102.5178-5.712 3.5341-11.005 8.3858-14.7153Z"/><path d="M69.4663 41.6769a19.5695 19.5695 0 0 1 .8752-4.26c-3.021 3.2042-4.8505 7.1802-5.2311 11.369-.0366.3955-.0566.7909-.0666 1.1984 1.421-.6142 3.0748-1.3811 4.8119-2.2828a19.4295 19.4295 0 0 1-.3894-6.0246ZM70.4612 41.7519a18.5672 18.5672 0 0 0 .3095 5.4553c6.8351-3.6818 14.5154-9.3709 14.2193-16.2462v-.5992c-4.8834.4919-9.4523 2.4138-13.0047 5.4704-.8317 1.8941-1.3454 3.8892-1.5241 5.9197Z"/>
</symbol>
<symbol id="logo6" viewBox="0 0 104 56">
    <path d="M53.5293 27.4433c-.444-.5909-.6564-1.2891-.606-1.992v-2.8881c0-.8853.2009-1.5581.6026-2.0184.4018-.4603 1.0918-.6894 2.0701-.6875.9193 0 1.5719.1959 1.9577.5876.4209.4998.6257 1.1111.5788 1.7276v.6787H56.488v-.6875a3.4973 3.4973 0 0 0-.0476-.6728c-.0237-.1523-.1065-.2932-.2349-.3996-.1689-.1147-.3816-.1703-.5959-.1557-.2253-.0145-.4487.0441-.6264.1645-.1433.1179-.2388.2724-.2724.4407a3.3415 3.3415 0 0 0-.0647.7139v3.5051c-.0259.3381.0466.6765.2111.9842.0818.1042.1954.1867.3282.2386a.9026.9026 0 0 0 .4242.0552c.2107.015.4197-.042.5822-.1586.134-.1148.2202-.2645.2452-.426a3.8553 3.8553 0 0 0 .051-.7022v-.711h1.6445v.6493c.0462.6426-.1536 1.2806-.5686 1.8157-.3779.4289-1.0214.6434-1.9679.6434-.9465 0-1.6615-.2291-2.0667-.7051ZM60.3763 27.4727c-.4153-.4495-.623-1.1047-.623-1.9714v-3.038c0-.8579.2077-1.5072.623-1.9479.4154-.4407 1.11-.66 2.0837-.6581.9669 0 1.6581.2194 2.0734.6581.4154.4407.6265 1.09.6265 1.9479v3.038c0 .8579-.2111 1.516-.6333 1.9684-.4222.4525-1.1099.6787-2.0666.6787-.9567 0-1.6649-.2291-2.0837-.6757Zm2.8497-.7287c.1488-.2815.2165-.59.1975-.899v-3.7195c.0191-.3031-.0475-.6056-.1941-.8814-.0834-.1064-.1998-.1903-.3358-.2422a.9068.9068 0 0 0-.4336-.0516.9195.9195 0 0 0-.4348.0522c-.1365.0519-.2535.1355-.3381.2416-.1497.275-.2176.578-.1974.8814v3.7371c-.0207.3092.0471.6179.1974.8991a1.027 1.027 0 0 0 .3469.2228 1.161 1.161 0 0 0 .4226.0789 1.161 1.161 0 0 0 .4226-.0789 1.0255 1.0255 0 0 0 .3468-.2228v-.0177ZM67.1378 19.946h1.7705l1.3312 5.6052 1.3619-5.6052h1.7228l.1736 8.0905h-1.2734l-.1361-5.6228-1.3143 5.6228h-1.0214l-1.3619-5.6434-.1259 5.6434h-1.287l.16-8.0905ZM75.4829 19.946h2.7577c1.5889 0 2.3833.7658 2.3833 2.2973 0 1.4669-.8364 2.1994-2.5092 2.1974h-.9397v3.5958h-1.7023l.0102-8.0905Zm2.356 3.4577c.1682.0184.339.0051.5007-.039a1.2264 1.2264 0 0 0 .4356-.2166c.1952-.2732.2813-.5941.2451-.9136a2.5302 2.5302 0 0 0-.0817-.7344.5958.5958 0 0 0-.1253-.222.7049.7049 0 0 0-.2152-.1629 1.7631 1.7631 0 0 0-.7592-.1292h-.6605v2.4177h.6605ZM83.0787 19.946h1.8283l1.876 8.0905h-1.5866l-.3711-1.8655h-1.6308l-.3813 1.8655h-1.6104l1.8759-8.0905Zm1.5628 5.2879-.6367-3.396-.6367 3.396h1.2734ZM88.2981 19.946h1.1916l2.2812 4.6152V19.946h1.4129v8.0905h-1.1337l-2.2948-4.8179v4.8179h-1.4606l.0034-8.0905ZM96.4932 24.9516l-1.8964-4.9943h1.5968l1.1576 3.2081 1.0861-3.2081H100l-1.8726 4.9943v3.0847h-1.6342v-3.0847ZM56.1579 31.5736v.4231h-1.3891v3.2875h-.5822v-3.2875h-1.396v-.4231h3.3673ZM60.5123 35.2844h-.4494a.1998.1998 0 0 1-.126-.0352.1934.1934 0 0 1-.0749-.0852l-.4017-.8813h-1.9271l-.4018.8813a.243.243 0 0 1-.0612.0999.2078.2078 0 0 1-.126.0352h-.4494l1.7023-3.7104h.5924l1.7228 3.6957Zm-2.8191-1.3778h1.6071l-.681-1.51a2.7033 2.7033 0 0 1-.126-.3496c-.0238.0705-.0442.1381-.0647.1969l-.0612.1557-.6742 1.507ZM63.4472 34.9202c.1066.0048.2134.0048.32 0a1.9257 1.9257 0 0 0 .2724-.0441 2.0993 2.0993 0 0 0 .2452-.0676c.0749-.0264.1498-.0587.2281-.0911v-.8344h-.681a.1423.1423 0 0 1-.0495-.0064.128.128 0 0 1-.0424-.023.0864.0864 0 0 1-.0259-.0304.0746.0746 0 0 1-.0081-.0372v-.285h1.321v1.4221a2.5709 2.5709 0 0 1-.3405.1763 2.509 2.509 0 0 1-.3779.1263 3.0537 3.0537 0 0 1-.4256.0764 5.1531 5.1531 0 0 1-.4971.0235 2.596 2.596 0 0 1-.858-.1381c-.2549-.0884-.4865-.2203-.6809-.3878-.1896-.1692-.3388-.3688-.4392-.5876a1.8544 1.8544 0 0 1-.1566-.7698 1.9229 1.9229 0 0 1 .1532-.7757c.0979-.2199.2474-.42.4392-.5876.1943-.167.426-.2979.6809-.3849a2.8586 2.8586 0 0 1 .9125-.1381 3.4149 3.4149 0 0 1 .4732.0323 2.334 2.334 0 0 1 .4052.094c.1191.0386.2332.0878.3405.1469.1043.058.2034.1228.2962.1939l-.1634.2292a.1426.1426 0 0 1-.0553.0509.1709.1709 0 0 1-.0775.0196.2224.2224 0 0 1-.1056-.0294 2.1031 2.1031 0 0 1-.1668-.0881 1.5103 1.5103 0 0 0-.2281-.0999 2.1372 2.1372 0 0 0-.3133-.0823 2.6253 2.6253 0 0 0-.4324-.0323 2.018 2.018 0 0 0-.6571.1028c-.1894.0656-.3602.1659-.5004.2939-.1411.1334-.2489.2904-.3167.4613a1.7335 1.7335 0 0 0 0 1.2369c.0745.1745.1905.3337.3405.4672.1396.1273.3091.2275.4971.2938.2165.0641.4459.0892.6741.0735ZM68.8744 34.8611h1.859v.4231h-2.4276v-3.7106h.5822l-.0136 3.2875ZM72.6672 35.2842h-.5822v-3.7106h.5822v3.7106ZM74.8325 31.5913c.0346.017.0648.04.0886.0676l2.4887 2.797a.884.884 0 0 1 0-.1322V31.559h.5073v3.7255h-.2928a.2758.2758 0 0 1-.1259-.0206.3308.3308 0 0 1-.092-.0705l-2.4853-2.7941V35.2845h-.4869v-3.7108h.303c.0329 0 .0653.006.0953.0176ZM82.2037 31.5736v.4084h-2.0632v1.2251h1.6717v.3937h-1.6717v1.2663h2.0632v.4083h-2.6624v-3.7018h2.6624ZM21.1952 8.6587l25.8518 6.334v22.1956l-25.8518-6.3311V8.6587Zm-1.6581-1.892v25.1687l29.1646 7.1478V13.9175L19.5371 6.7667Z"/><path d="M35.168 50.7667 6 43.6129v-25.166l29.168 7.1508v25.169Z"/><path d="m20.0205 8.3737 25.5147 6.2546-10.8507 9.3658-25.5181-6.2576 10.8541-9.3628Zm-.4835-1.607L6 18.4475l29.168 7.1506 13.5336-11.6807L19.537 6.7667ZM36.8091 49.3509l11.8925-10.2646-11.8925-2.9172v13.1818Z"/>
</symbol>
</svg>

